<?xml version="1.0" encoding="iso-8859-1"?>
<!-- Uploaded to: SVG Repo, www.svgrepo.com, Generator: SVG Repo Mixer Tools -->
<!DOCTYPE svg PUBLIC "-//W3C//DTD SVG 1.1//EN" "http://www.w3.org/Graphics/SVG/1.1/DTD/svg11.dtd">
<svg fill="#000000" version="1.1" id="Capa_1" xmlns="http://www.w3.org/2000/svg" xmlns:xlink="http://www.w3.org/1999/xlink" 
	 width="800px" height="800px" viewBox="0 0 512.122 512.122"
	 xml:space="preserve">
<g>
	<g>
		<path d="M352.9,438.627h-20.294v-29.838c0-1.98-1.604-3.584-3.584-3.584h-14.102V176.702c0-1.979-1.604-3.583-3.584-3.583h-9.683
			v-28.068c0-1.979-1.604-3.583-3.584-3.583h-17.644v-28.069c0-1.979-1.604-3.583-3.584-3.583h-4.038
			c-3.102-6.607-13.16-31.534-13.16-76.703V3.584c0-1.98-1.604-3.584-3.584-3.584c-1.98,0-3.583,1.605-3.583,3.584v29.529
			c0,45.169-10.061,70.096-13.16,76.703h-4.04c-1.979,0-3.584,1.604-3.584,3.583v28.068h-17.643c-1.98,0-3.584,1.604-3.584,3.584
			v28.068h-9.683c-1.98,0-3.584,1.604-3.584,3.583v228.503h-14.102c-1.979,0-3.583,1.604-3.583,3.584v29.837h-20.294
			c-1.979,0-3.584,1.604-3.584,3.583v66.329c0,1.979,1.605,3.584,3.584,3.584h193.681c1.98,0,3.584-1.604,3.584-3.584v-66.329
			C356.485,440.231,354.881,438.627,352.9,438.627z M256.061,77.707c2.736,15.722,6.436,26.305,8.877,32.109h-17.757
			C249.626,104.011,253.325,93.428,256.061,77.707z M238.86,116.983h2.658c0.001,0,0.002,0,0.006,0c0.001,0,0.002,0,0.004,0h31.73
			v24.485H238.86V116.983L238.86,116.983z M217.635,148.634h17.642h41.565h17.644v24.484h-76.851V148.634L217.635,148.634z
			 M204.369,180.286h9.683h84.018h9.685v224.919H204.367V180.286H204.369z M186.681,412.371h14.104h110.55h14.104v26.256H186.68
			L186.681,412.371L186.681,412.371z M349.316,504.957H162.803v-59.163h20.295h145.924h20.294L349.316,504.957L349.316,504.957z"/>
		<path d="M220.778,190.174c-1.979,0-3.583,1.605-3.583,3.584v25.484c0,1.979,1.604,3.583,3.583,3.583s3.583-1.604,3.583-3.583
			v-25.484C224.361,191.778,222.756,190.174,220.778,190.174z"/>
		<path d="M238.419,190.174c-1.979,0-3.583,1.605-3.583,3.584v25.484c0,1.979,1.605,3.583,3.583,3.583
			c1.979,0,3.583-1.604,3.583-3.583v-25.484C242.002,191.778,240.398,190.174,238.419,190.174z"/>
		<path d="M256.061,190.174c-1.98,0-3.584,1.605-3.584,3.584v25.484c0,1.979,1.604,3.583,3.584,3.583
			c1.979,0,3.584-1.604,3.584-3.583v-25.484C259.644,191.778,258.039,190.174,256.061,190.174z"/>
		<path d="M273.701,190.174c-1.979,0-3.584,1.605-3.584,3.584v25.484c0,1.979,1.604,3.583,3.584,3.583
			c1.98,0,3.584-1.604,3.584-3.583v-25.484C277.285,191.778,275.681,190.174,273.701,190.174z"/>
		<path d="M291.343,190.174c-1.979,0-3.582,1.605-3.582,3.584v25.484c0,1.979,1.604,3.583,3.582,3.583
			c1.979,0,3.584-1.604,3.584-3.583v-25.484C294.927,191.778,293.323,190.174,291.343,190.174z"/>
		<path d="M220.778,233.974c-1.979,0-3.583,1.604-3.583,3.584v25.484c0,1.979,1.604,3.583,3.583,3.583s3.583-1.605,3.583-3.583
			v-25.484C224.361,235.578,222.756,233.974,220.778,233.974z"/>
		<path d="M238.419,233.974c-1.979,0-3.583,1.604-3.583,3.584v25.484c0,1.979,1.605,3.583,3.583,3.583
			c1.979,0,3.583-1.605,3.583-3.583v-25.484C242.002,235.578,240.398,233.974,238.419,233.974z"/>
		<path d="M256.061,233.974c-1.98,0-3.584,1.604-3.584,3.584v25.484c0,1.979,1.604,3.583,3.584,3.583
			c1.979,0,3.584-1.605,3.584-3.583v-25.484C259.644,235.578,258.039,233.974,256.061,233.974z"/>
		<path d="M273.701,233.974c-1.979,0-3.584,1.604-3.584,3.584v25.484c0,1.979,1.604,3.583,3.584,3.583
			c1.98,0,3.584-1.605,3.584-3.583v-25.484C277.285,235.578,275.681,233.974,273.701,233.974z"/>
		<path d="M291.343,233.974c-1.979,0-3.582,1.604-3.582,3.584v25.484c0,1.979,1.604,3.583,3.582,3.583
			c1.979,0,3.584-1.605,3.584-3.583v-25.484C294.927,235.578,293.323,233.974,291.343,233.974z"/>
		<path d="M220.778,277.777c-1.979,0-3.583,1.604-3.583,3.582v25.485c0,1.979,1.604,3.584,3.583,3.584s3.583-1.604,3.583-3.584
			v-25.485C224.361,279.381,222.756,277.777,220.778,277.777z"/>
		<path d="M238.419,277.777c-1.979,0-3.583,1.604-3.583,3.582v25.485c0,1.979,1.605,3.584,3.583,3.584
			c1.979,0,3.583-1.604,3.583-3.584v-25.485C242.002,279.381,240.398,277.777,238.419,277.777z"/>
		<path d="M256.061,277.777c-1.98,0-3.584,1.604-3.584,3.582v25.485c0,1.979,1.604,3.584,3.584,3.584
			c1.979,0,3.584-1.604,3.584-3.584v-25.485C259.644,279.381,258.039,277.777,256.061,277.777z"/>
		<path d="M273.701,277.777c-1.979,0-3.584,1.604-3.584,3.582v25.485c0,1.979,1.604,3.584,3.584,3.584
			c1.98,0,3.584-1.604,3.584-3.584v-25.485C277.285,279.381,275.681,277.777,273.701,277.777z"/>
		<path d="M291.343,277.777c-1.979,0-3.582,1.604-3.582,3.582v25.485c0,1.979,1.604,3.584,3.582,3.584
			c1.979,0,3.584-1.604,3.584-3.584v-25.485C294.927,279.381,293.323,277.777,291.343,277.777z"/>
		<path d="M220.778,321.576c-1.979,0-3.583,1.603-3.583,3.582v25.486c0,1.979,1.604,3.582,3.583,3.582s3.583-1.604,3.583-3.582
			v-25.486C224.361,323.179,222.756,321.576,220.778,321.576z"/>
		<path d="M238.419,321.576c-1.979,0-3.583,1.603-3.583,3.582v25.486c0,1.979,1.605,3.582,3.583,3.582
			c1.979,0,3.583-1.604,3.583-3.582v-25.486C242.002,323.179,240.398,321.576,238.419,321.576z"/>
		<path d="M256.061,321.576c-1.98,0-3.584,1.603-3.584,3.582v25.486c0,1.979,1.604,3.582,3.584,3.582
			c1.979,0,3.584-1.604,3.584-3.582v-25.486C259.644,323.179,258.039,321.576,256.061,321.576z"/>
		<path d="M273.701,321.576c-1.979,0-3.584,1.603-3.584,3.582v25.486c0,1.979,1.604,3.582,3.584,3.582
			c1.98,0,3.584-1.604,3.584-3.582v-25.486C277.285,323.179,275.681,321.576,273.701,321.576z"/>
		<path d="M291.343,321.576c-1.979,0-3.582,1.603-3.582,3.582v25.486c0,1.979,1.604,3.582,3.582,3.582
			c1.979,0,3.584-1.604,3.584-3.582v-25.486C294.927,323.179,293.323,321.576,291.343,321.576z"/>
		<path d="M220.778,365.375c-1.979,0-3.583,1.604-3.583,3.582v25.486c0,1.979,1.604,3.584,3.583,3.584s3.583-1.604,3.583-3.584
			v-25.486C224.361,366.979,222.756,365.375,220.778,365.375z"/>
		<path d="M238.419,365.375c-1.979,0-3.583,1.604-3.583,3.582v25.486c0,1.979,1.605,3.584,3.583,3.584
			c1.979,0,3.583-1.604,3.583-3.584v-25.486C242.002,366.979,240.398,365.375,238.419,365.375z"/>
		<path d="M256.061,365.375c-1.98,0-3.584,1.604-3.584,3.582v25.486c0,1.979,1.604,3.584,3.584,3.584
			c1.979,0,3.584-1.604,3.584-3.584v-25.486C259.644,366.979,258.039,365.375,256.061,365.375z"/>
		<path d="M273.701,365.375c-1.979,0-3.584,1.604-3.584,3.582v25.486c0,1.979,1.604,3.584,3.584,3.584
			c1.98,0,3.584-1.604,3.584-3.584v-25.486C277.285,366.979,275.681,365.375,273.701,365.375z"/>
		<path d="M291.343,365.375c-1.979,0-3.582,1.604-3.582,3.582v25.486c0,1.979,1.604,3.584,3.582,3.584
			c1.979,0,3.584-1.604,3.584-3.584v-25.486C294.927,366.979,293.323,365.375,291.343,365.375z"/>
	</g>
</g>
</svg>